<svg class="logo" xmlns="http://www.w3.org/2000/svg" viewBox="0 0 113.7 43.6" enable-background="new 0 0 113.7 43.6">
    <path id="logo__s" class="st0"
        d="M17.6 20.1l-3.3-2.2c-6.4-3.9-7.8-5.7-7.8-9.2 0-3.1 2.3-6.5 7.9-6.5 6.5 0 7.9 1.3 9.3 2.6 1.1 1 1.8 2.4 1.9 3.9h.9v-7.8c-.4.3-.9.5-1.4.4-.9 0-1.9-.2-2.8-.4-2.5-.6-5-.9-7.5-.9-8.8 0-13.9 4.5-13.9 10.5 0 3.8.9 7 9.1 12.2l3.4 2.2c6 4.4 8.3 6.1 8.3 9.6s-3.7 5.7-9.3 5.7-8.4-2.5-9.6-4c-1-1.1-1.6-2.4-1.8-3.8h-1v10.7c.9-.9 1.4-1.3 2.3-1.3.8 0 1.6.2 2.3.4 2.7.8 5.5 1.2 8.3 1.3 13.5 0 14.8-7.9 14.4-12.2-.3-3.5-2.7-6.5-9.7-11.2z">
    </path>
    <path id="logo__e" class="st0"
        d="M42.6 4.4c0-2.6-4.2-2.6-5.1-2.6v-.9h28.3c.7-.1 1.3-.4 1.9-.9v8.3h-.9c0-3.5-1.7-4.4-4.6-4.4h-13v15.2h13.8c2.3 0 2.3-1.7 2.3-2.2h.5v8.3h-.5c0-.4 0-3-2.3-3h-13.9v14.4c0 3 2.8 3 4.2 3h7.4c1.7.1 3.5-.2 5.1-.9 1.8-.9 2.7-2.5 3.2-4.8h.9l-1.4 9.1h-31v-.9c.9 0 5.1 0 5.1-2.6v-35.1z">
    </path>
    <path id="logo__p" class="st0"
        d="M84.5 4.4c0-2.6-4.2-2.6-5.1-2.6v-.9h18.1c15.3 0 16.2 8.7 16.2 10.8 0 7.4-6.5 11.9-17 12-1.7 0-4-.6-3.2-.7.8-.1 1.1-.1 2.9-.2 7.2-.6 11.4-3.7 11.4-9.4-.1-8.1-4.8-9.4-10.8-9.4h-6v35.7c0 2.6 5.6 2.6 6.5 2.6v.9h-18.1v-.9c.9 0 5.1 0 5.1-2.6v-35.3z">
    </path>
</svg>